<?xml version="1.0" encoding="UTF-8" standalone="no"?>
<!-- Created with Inkscape (http://www.inkscape.org/) -->

<svg
   xmlns:dc="http://purl.org/dc/elements/1.1/"
   xmlns:cc="http://creativecommons.org/ns#"
   xmlns:rdf="http://www.w3.org/1999/02/22-rdf-syntax-ns#"
   xmlns:svg="http://www.w3.org/2000/svg"
   xmlns="http://www.w3.org/2000/svg"
   xmlns:sodipodi="http://sodipodi.sourceforge.net/DTD/sodipodi-0.dtd"
   xmlns:inkscape="http://www.inkscape.org/namespaces/inkscape"
   sodipodi:docname="gmc-favico.svg"
   inkscape:version="0.92.5 (2060ec1f9f, 2020-04-08)"
   id="svg8"
   version="1.1"
   viewBox="0 0 210 297"
   height="297mm"
   width="210mm"
   inkscape:export-filename="/home/gdbeckstein/Documents/aglass0fmilk.github.io/assets/img/gmc-favico.png"
   inkscape:export-xdpi="5.2928896"
   inkscape:export-ydpi="5.2928896">
  <defs
     id="defs2" />
  <sodipodi:namedview
     id="base"
     pagecolor="#ffffff"
     bordercolor="#666666"
     borderopacity="1.0"
     inkscape:pageopacity="0.0"
     inkscape:pageshadow="2"
     inkscape:zoom="2.8"
     inkscape:cx="435.89096"
     inkscape:cy="460.30282"
     inkscape:document-units="mm"
     inkscape:current-layer="layer1"
     showgrid="false"
     inkscape:window-width="3696"
     inkscape:window-height="2032"
     inkscape:window-x="144"
     inkscape:window-y="54"
     inkscape:window-maximized="1" />
  <metadata
     id="metadata5">
    <rdf:RDF>
      <cc:Work
         rdf:about="">
        <dc:format>image/svg+xml</dc:format>
        <dc:type
           rdf:resource="http://purl.org/dc/dcmitype/StillImage" />
        <dc:title />
      </cc:Work>
    </rdf:RDF>
  </metadata>
  <g
     inkscape:label="Layer 1"
     inkscape:groupmode="layer"
     id="layer1">
    <rect
       style="fill:#dfdfd7;fill-opacity:1;stroke:none;stroke-width:2;stroke-linejoin:round;stroke-miterlimit:4;stroke-dasharray:none;stroke-opacity:1"
       id="rect815"
       width="75.217262"
       height="75.217262"
       x="72.193451"
       y="116.89434"
       ry="9.1270008"
       inkscape:export-xdpi="21.610001"
       inkscape:export-ydpi="21.610001" />
    <path
       style="fill:#dfdfd7;fill-opacity:1;stroke:none;stroke-width:1.34983134;stroke-linejoin:round;stroke-miterlimit:4;stroke-dasharray:none;stroke-opacity:1"
       d="M 272.92278,557.93927 V 545.9728 h 77.02489 c 82.95316,0 79.03927,0.0412 84.72492,-0.89199 10.70294,-1.7567 20.88364,-5.24878 29.14305,-9.99632 1.42411,-0.81859 22.79911,-13.15512 47.5,-27.41452 24.70089,-14.25939 45.09152,-26.02212 45.3125,-26.13938 l 0.40179,-0.21321 v 11.85363 11.85363 l -47.8125,27.6042 c -26.29688,15.18231 -48.49554,27.96534 -49.33036,28.40673 -5.63645,2.98014 -15.73119,6.2636 -23.66072,7.69598 -6.47737,1.17007 1.53573,1.06425 -84.95535,1.12193 l -78.34822,0.0522 z"
       id="path931"
       inkscape:connector-curvature="0"
       transform="scale(0.26458333)" />
    <path
       style="fill:#dfdfd7;fill-opacity:1;stroke:none;stroke-width:1.34983134;stroke-linejoin:round;stroke-miterlimit:4;stroke-dasharray:none;stroke-opacity:1"
       d="M 272.92278,557.93708 V 545.9728 l 75.40179,-0.005 c 44.83603,-0.003 76.92193,-0.0742 79.15178,-0.17521 3.78727,-0.1715 6.45999,-0.51042 10.59429,-1.3434 7.90811,-1.59335 16.6698,-4.54731 22.44143,-7.56601 1.08036,-0.56506 23.05803,-13.20368 48.83928,-28.08583 25.78125,-14.88215 47.05581,-27.15321 47.27679,-27.26902 l 0.40179,-0.21056 v 11.86051 11.86051 l -21.11608,12.19152 c -11.61384,6.70534 -33.08928,19.10586 -47.72321,27.55671 -14.63393,8.45086 -27.65766,15.90029 -28.94163,16.55429 -6.26292,3.19011 -15.68747,6.14316 -24.45123,7.66146 -5.4189,0.93881 -1.6642,0.89899 -84.76082,0.89899 h -77.11418 z"
       id="path933"
       inkscape:connector-curvature="0"
       transform="scale(0.26458333)" />
    <path
       style="fill:#e6c67b;fill-opacity:1;stroke:none;stroke-width:0.36119276;stroke-linejoin:round;stroke-miterlimit:4;stroke-dasharray:none;stroke-opacity:1"
       d="m 72.210818,148.0849 v -3.23605 l 20.658762,-0.0179 c 15.32411,-0.0133 20.76856,-0.0324 21.08398,-0.074 2.40728,-0.31782 4.71769,-0.94745 6.80358,-1.85411 0.3638,-0.15813 0.86299,-0.397 1.1093,-0.53083 0.24632,-0.13383 4.94504,-2.89785 10.44159,-6.14228 5.49656,-3.24443 11.13122,-6.56963 12.52146,-7.38933 l 2.52772,-1.49037 0.0121,3.19968 c 0.007,1.75982 -0.004,4.51408 -0.0236,4.53254 -0.0197,0.0185 -4.43684,1.6394 -9.81591,4.81471 -5.37907,3.17532 -11.04517,6.21305 -12.59133,7.12588 -1.54616,0.91282 -3.0876,1.80337 -3.42541,1.97899 -1.67813,0.87243 -4.19224,1.67947 -6.47154,2.07739 -1.44543,0.25235 -0.45723,0.2417 -22.427606,0.2417 H 72.210807 Z"
       id="path935"
       inkscape:connector-curvature="0"
       sodipodi:nodetypes="ccccccsscccccccscc" />
    <path
       style="fill:#f3984f;fill-opacity:1;stroke:none;stroke-width:0.3583208;stroke-linejoin:round;stroke-miterlimit:4;stroke-dasharray:none;stroke-opacity:1"
       d="m 72.210818,155.22502 v -3.99497 l 20.139043,-8e-4 c 12.603829,-5.3e-4 20.395379,-0.0181 20.824129,-0.0472 2.66466,-0.18074 5.88046,-1.03255 8.2446,-2.18387 0.44728,-0.21782 5.87645,-3.34444 13.29619,-7.6572 6.89713,-4.00898 12.56866,-7.30004 12.60341,-7.31346 0.0525,-0.0203 0.0611,0.64927 0.0511,3.95771 l -0.0121,3.98212 -12.59133,7.32074 c -6.92523,4.02641 -12.90604,7.47894 -13.29068,7.6723 -2.11431,1.06287 -5.00779,1.8962 -7.59353,2.18696 -0.55732,0.0627 -3.1979,0.0717 -21.153831,0.0721 l -20.517022,5.3e-4 z"
       id="path937"
       inkscape:connector-curvature="0" />
    <path
       style="fill:#c33146;fill-opacity:1;stroke:none;stroke-width:0.36163884;stroke-linejoin:round;stroke-miterlimit:4;stroke-dasharray:none;stroke-opacity:1"
       d="m 72.210818,165.18766 v -6.10396 l 20.328032,-5.4e-4 c 13.1608,-2.7e-4 20.52793,-0.0176 20.895,-0.049 2.68191,-0.22953 6.03928,-1.18265 8.26733,-2.347 0.3643,-0.19038 6.28257,-3.67481 13.15171,-7.74319 6.86915,-4.06838 12.49805,-7.39705 12.50865,-7.39705 0.0106,0 0.0193,2.79609 0.0193,6.21353 v 6.21353 l -12.43611,7.36292 c -6.83986,4.04961 -12.69578,7.49684 -13.01315,7.66051 -1.65683,0.85444 -4.20786,1.66848 -6.41886,2.04829 -1.50833,0.2591 -0.29171,0.24589 -22.629981,0.24589 H 72.210813 Z"
       id="path939"
       inkscape:connector-curvature="0" />
  </g>
  <g
     inkscape:groupmode="layer"
     id="layer3"
     inkscape:label="lines"
     style="display:none">
    <path
       id="path877"
       d="m 62.022182,171.45685 h 50.834938 c 2.9225,0 7.34342,-1.18458 9.87438,-2.64583 l 38.89425,-22.45562"
       inkscape:connector-curvature="0"
       style="fill:none;stroke:#000000;stroke-width:0.26458332px;stroke-linecap:butt;stroke-linejoin:miter;stroke-opacity:1" />
    <path
       id="path877-0"
       d="m 61.549713,159.22944 h 50.834927 c 2.92251,0 7.34342,-1.18458 9.87439,-2.64583 l 38.89425,-22.45562"
       inkscape:connector-curvature="0"
       style="fill:none;stroke:#000000;stroke-width:0.26458332px;stroke-linecap:butt;stroke-linejoin:miter;stroke-opacity:1" />
    <path
       id="path877-0-2"
       d="m 61.549711,150.94884 h 50.834929 c 2.92251,0 7.34342,-1.18458 9.87439,-2.64583 l 38.89425,-22.45562"
       inkscape:connector-curvature="0"
       style="fill:none;stroke:#000000;stroke-width:0.26458332px;stroke-linecap:butt;stroke-linejoin:miter;stroke-opacity:1" />
    <path
       id="path877-0-2-6"
       d="m 61.549716,144.30723 h 50.834924 c 2.92251,0 7.34342,-1.18458 9.87439,-2.64583 l 38.89425,-22.45562"
       inkscape:connector-curvature="0"
       style="fill:none;stroke:#000000;stroke-width:0.26458332px;stroke-linecap:butt;stroke-linejoin:miter;stroke-opacity:1" />
  </g>
  <g
     inkscape:groupmode="layer"
     id="layer2"
     inkscape:label="Mask">
    <rect
       style="fill:none;fill-opacity:0.96226418;stroke-width:1.56499998;stroke:#0e0000;stroke-opacity:1;stroke-miterlimit:4;stroke-dasharray:none"
       id="rect825"
       width="75.217247"
       height="75.217262"
       x="72.193451"
       y="116.89434"
       ry="9.1539812"
       inkscape:export-xdpi="21.17156"
       inkscape:export-ydpi="21.17156" />
  </g>
</svg>
